<?xml version="1.0" encoding="UTF-8"?> <svg xmlns="http://www.w3.org/2000/svg" width="128.422" height="31.255" viewBox="0 0 128.422 31.255"><g id="Grupo_770" data-name="Grupo 770" transform="translate(-626.328 -2843)"><g id="Grupo_429" data-name="Grupo 429" transform="translate(724.063 2843.017)"><path id="Trazado_628" data-name="Trazado 628" d="M689.012,445.223v16.7a5.97,5.97,0,0,1-.34,2.338,2.68,2.68,0,0,1-2.6,1.349,2.41,2.41,0,0,1-2.19,2.112c-.081,0-.162.008-.244.009a2.32,2.32,0,0,1-2.326-2.121,2.655,2.655,0,0,1-2.666-2.562,6.321,6.321,0,0,1-.044-.769V445.223h-9.234v19.023c0,7.509,4.409,12.144,11.022,12.144a11.68,11.68,0,0,0,8.817-3.872v3.942h10.848V445.223Z" transform="translate(-669.369 -445.223)" fill="#ed3725"></path><circle id="Elipse_121" data-name="Elipse 121" cx="1.761" cy="1.761" r="1.761" transform="translate(12.639 12.069)" fill="#ed3725"></circle><path id="Trazado_629" data-name="Trazado 629" d="M721.483,524.611a.86.86,0,1,0-.86-.86A.86.86,0,0,0,721.483,524.611Z" transform="translate(-709.704 -506.345)" fill="#ed3725"></path><path id="Trazado_630" data-name="Trazado 630" d="M746.089,524.611a.86.86,0,1,0-.86-.86A.86.86,0,0,0,746.089,524.611Z" transform="translate(-729.069 -506.345)" fill="#ed3725"></path><circle id="Elipse_122" data-name="Elipse 122" cx="0.86" cy="0.86" r="0.86" transform="translate(13.539 18.662)" fill="#ed3725"></circle></g><g id="Grupo_430" data-name="Grupo 430" transform="translate(658.885 2843)"><path id="Trazado_631" data-name="Trazado 631" d="M383.24,445.156v1.485c-1.434-.971-3.583-1.607-6.822-1.485-7.406.28-13.009,6.3-13.009,15.634,0,9.276,5.464,15.091,12.859,15.576,3.684.242,5.826-1.047,6.972-2.2v2.219h11.039V445.156Zm1.628,19.136c-.07.115-.327.127-.392.123a1.728,1.728,0,0,1-.815-.271,3.884,3.884,0,0,1-1.216-1.111,6.013,6.013,0,0,1-.6-.857,4.694,4.694,0,1,1-4.5-6.013l.118,0h0a4.971,4.971,0,0,1,3.3-1.209c1.391.114-.327.867-.551,2.186h0a4.7,4.7,0,0,1,1.607,2.3,4.316,4.316,0,0,1,.438-.689,4.171,4.171,0,0,1,1.565-1.465,1.418,1.418,0,0,1,.88-.173c.177.021.306.223.211.574-.065.241-.146.463-.147.465a7.025,7.025,0,0,0-.5,2.112,7.275,7.275,0,0,0,.512,3.106C384.989,463.869,384.984,464.15,384.868,464.293Z" transform="translate(-363.409 -445.141)" fill="#845ea7"></path><path id="Trazado_632" data-name="Trazado 632" d="M415.95,509.772a.86.86,0,1,0,.86.86A.86.86,0,0,0,415.95,509.772Z" transform="translate(-404.08 -496.004)" fill="#845ea7"></path></g><path id="Trazado_633" data-name="Trazado 633" d="M535.706,445.2a11.912,11.912,0,0,0-8.946,3.884V445.2H515.754v31.243H526.76V463.656c0-.3.013-.592.033-.874.036-.786.106-5.4,4.475-7.555.159-.078,1.092-.458.629.507a3.3,3.3,0,0,0-.347,1.21c0,.117.053.331.445.141h0a4.908,4.908,0,0,1,2.829-.619c.2.029,1.086.209.272.751a2.118,2.118,0,0,0-.539.5c-.069.12-.16.355.237.383a3.927,3.927,0,0,1,1.645.337c.164.076.937.479.2.7a2.07,2.07,0,0,0-.3.114,1.252,1.252,0,0,0-.649,1.443c0,.017.007.035.01.052a11.988,11.988,0,0,1,.125,1.262v14.433h11.065v-19.06C546.889,449.848,542.416,445.2,535.706,445.2Z" transform="translate(175.585 2397.813)" fill="#50ba7a"></path><path id="Trazado_634" data-name="Trazado 634" d="M228.8,445.3H210.58v31.138h10.983v-4.15h6.5c8.245,0,13.6-5.622,13.6-13.3C241.67,451.631,236.629,445.3,228.8,445.3Zm.186,19.534a3.406,3.406,0,0,1-2.869-1.59,3.407,3.407,0,0,1-2.869,1.59,3.46,3.46,0,0,1-3.423-3.488.482.482,0,1,1,.963,0,2.455,2.455,0,0,0,4.836.646.9.9,0,0,0-.057-.546l-2.223-3.071a1.7,1.7,0,0,1,.029-1.609,1.505,1.505,0,0,1,1.35-.8h2.862a1.649,1.649,0,0,1,1.3.9,1.682,1.682,0,0,1-.123,1.624c-.173.262-1.366,1.919-2.092,2.925a.847.847,0,0,0-.058.576,2.455,2.455,0,0,0,4.836-.646.482.482,0,1,1,.963,0A3.46,3.46,0,0,1,228.99,464.83Z" transform="translate(415.748 2397.737)" fill="#3fb6e8"></path></g></svg> 